# AST/ASF file generated using VICON BodyLanguage
# -----------------------------------------------
:version 1.10
:name VICON
:units
  mass 1.0
  length 0.45
  angle deg
:documentation
   .ast/.asf automatically generated from VICON data using
   VICON BodyBuilder and BodyLanguage model FoxedUp or BRILLIANT.MOD
:root
   order TX TY TZ RX RY RZ
   axis XYZ
   position 0 0 0  
   orientation 0 0 0 
:bonedata
  begin
     id 1 
     name lhipjoint
     direction 0.602128 -0.715006 0.355257 
     length 2.21237 
     axis 0 0 0  XYZ
  end
  begin
     id 2 
     name lfemur
     direction 0.34202 -0.939693 0  
     length 6.71649  
     axis 0 0 20  XYZ
    dof rx ry rz
    limits (-160.0 20.0)
           (-70.0 70.0)
           (-60.0 70.0)
  end
  begin
     id 3 
     name ltibia
     direction 0.34202 -0.939693 0   
     length 6.97123   
     axis 0 0 20   XYZ
    dof rx
    limits (-10.0 170.0)
  end
  begin
     id 4 
     name lfoot
     direction 0.0655697 -0.180151 0.981451   
     length 1.80924   
     axis -90 7.62852e-016 20   XYZ
    dof rx rz
    limits (-45.0 90.0)
           (-70.0 20.0)
  end
  begin
     id 5 
     name ltoes
     direction 1.53545e-011 -4.21827e-011 1   
     length 0.916331   
     axis -90 7.62852e-016 20   XYZ
    dof rx
    limits (-90.0 20.0)
  end
  begin
     id 6 
     name rhipjoint
     direction -0.625414 -0.698792 0.347201   
     length 2.2637  
     axis 0 0 0  XYZ 
  end
  begin
     id 7 
     name rfemur
     direction -0.34202 -0.939693 0   
     length 7.07595   
     axis 0 0 -20   XYZ
    dof rx ry rz
    limits (-160.0 20.0)
           (-70.0 70.0)
           (-70.0 60.0)
  end
  begin
     id 8 
     name rtibia
     direction -0.34202 -0.939693 0   
     length 7.22924   
     axis 0 0 -20   XYZ
    dof rx
    limits (-10.0 170.0)
 end
 begin
     id 9 
     name rfoot
     direction -0.0766747 -0.210662 0.974547   
     length 1.98482  
     axis -90 -7.62852e-016 -20   XYZ
    dof rx rz
    limits (-45.0 90.0)
           (-20.0 70.0)
  end
  begin
     id 10 
     name rtoes
     direction -1.53532e-011 -4.21867e-011 1   
     length 0.999842   
     axis -90 -7.62852e-016 -20   XYZ
    dof rx
    limits (-90.0 20.0)
  end
  begin
     id 11 
     name lowerback
     direction -0.0224668 0.997354 -0.0691422   
     length 2.09945   
     axis 0 0 0   XYZ
    dof rx ry rz
    limits (-20.0 45.0)
           (-30.0 30.0)
           (-30.0 30.0)
  end
  begin
     id 12 
     name upperback
     direction 0.0134698 0.998451 -0.0539888   
     length 2.09758   
     axis 0 0 0   XYZ
    dof rx ry rz
    limits (-20.0 45.0)
           (-30.0 30.0)
           (-30.0 30.0)
  end
  begin
     id 13 
     name thorax
     direction 0.0241905 0.99948 -0.0213333   
     length 2.10428   
     axis 0 0 0   XYZ
    dof rx ry rz
    limits (-20.0 45.0)
           (-30.0 30.0)
           (-30.0 30.0)
  end
  begin
     id 14 
     name lowerneck
     direction -0.00866847 0.995978 0.0891737   
     length 1.3959   
     axis 0 0 0   XYZ
    dof rx ry rz
    limits (-20.0 45.0)
           (-30.0 30.0)
           (-30.0 30.0)
  end
  begin
     id 15 
     name upperneck
     direction 0.0680679 0.992203 0.104404   
     length 1.39452   
     axis 0 0 0   XYZ
    dof rx ry rz
    limits (-20.0 45.0)
           (-30.0 30.0)
           (-30.0 30.0)
  end
  begin
     id 16
     name head
     direction 0.0242216 0.999358 0.0264054  
     length 1.40433  
     axis 0 0 0   XYZ
    dof rx ry rz
    limits (-20.0 45.0)
           (-30.0 30.0)
           (-30.0 30.0)
  end
  begin
     id 17 
     name lclavicle
     direction 0.929368 0.362991 -0.0671771  
     length 3.04887  
     axis 0 0 0   XYZ
    dof ry rz
    limits (-20.0 10.0)
           (0.0 20.0)
  end
  begin
     id 18 
     name lhumerus
     direction 1 -4.48967e-011 -7.13741e-028   
     length 4.77195   
     axis -180 -30 -90   XYZ
    dof rx ry rz
    limits (-60.0 90.0)
           (-90.0 90.0)
           (-90.0 90.0)
  end
  begin
     id 19
     name lradius
     direction 1 -4.48977e-011 3.60404e-027   
     length 2.98444   
     axis -180 -30 -90   XYZ
    dof rx
    limits (-10.0 170.0)
  end
  begin
     id 20
     name lwrist
     direction 1 -4.48997e-011 7.54877e-027   
     length 1.49222   
     axis -7.18178e-015 90 90   XYZ
    dof ry
    limits (-180.0 0.0)
 end
  begin
     id 21 
     name lhand
     direction 1 -4.489e-011 1.51105e-026   
     length 0.992285   
     axis -9.63605e-015 90 90   XYZ
    dof rx rz
    limits (-90.0 90.0)
           (-45.0 45.0)
  end
  begin
     id 22 
     name lfingers
     direction 1 -4.48998e-011 3.01948e-026   
     length 0.800006   
     axis -1.92718e-014 90 90   XYZ
    dof rx
    limits (0.0 90.0)
  end
  begin
     id 23
     name lthumb
     direction 0.707107 -6.34881e-011 0.707107   
     length 1.14865   
     axis -90 45 -3.53137e-014   XYZ
    dof rx rz
    limits (-45.0 45.0)
           (-45.0 45.0)
  end
  begin
     id 24 
     name rclavicle
     direction -0.945672 0.324529 0.0196374   
     length 3.4236  
     axis 0 0 0   XYZ 
    dof ry rz
    limits (-10.0 20.0)
           (-20.0 0.0)
  end
  begin
     id 25 
     name rhumerus
     direction -1 -4.4896e-011 1.02757e-029  
     length 4.62052   
     axis -180 30 90   XYZ
    dof rx ry rz
    limits (-90.0 60.0)
           (-90.0 90.0)
           (-90.0 90.0)
  end
  begin
     id 26 
     name rradius
     direction -1 -4.48982e-011 3.85962e-027   
     length 2.95332   
     axis -180 30 90   XYZ
    dof rx
    limits (-10.0 170.0)
  end
  begin
     id 27 
     name rwrist
     direction -1 -4.48961e-011 7.55118e-027   
     length 1.47666   
     axis -7.18178e-015 -90 -90   XYZ
    dof ry
    limits (-180.0 0.0)
  end
  begin
     id 28
     name rhand
     direction -1 -4.48984e-011 1.50994e-026   
     length 0.990956   
     axis -9.63605e-015 -90 -90   XYZ
    dof rx rz
    limits (-90.0 90.0)
           (-45.0 45.0)
  end
  begin
     id 29
     name rfingers
     direction -1 -4.4892e-011 3.02158e-026   
     length 0.798934   
     axis -1.92718e-014 -90 -90   XYZ
    dof rx
    limits (0.0 90.0)
  end
  begin
     id 30
     name rthumb
     direction -0.707107 -6.34916e-011 0.707107   
     length 1.14711   
     axis -90 -45 3.53137e-014   XYZ
    dof rx rz
    limits (-45.0 45.0)
           (-45.0 45.0)
  end
:hierarchy
  begin
    root lhipjoint rhipjoint lowerback
    lhipjoint lfemur
    lfemur ltibia
    ltibia lfoot
    lfoot ltoes
    rhipjoint rfemur
    rfemur rtibia
    rtibia rfoot
    rfoot rtoes
    lowerback upperback
    upperback thorax
    thorax lowerneck lclavicle rclavicle
    lowerneck upperneck
    upperneck head
    lclavicle lhumerus
    lhumerus lradius
    lradius lwrist
    lwrist lhand lthumb
    lhand lfingers
    rclavicle rhumerus
    rhumerus rradius
    rradius rwrist
    rwrist rhand rthumb
    rhand rfingers
  end

#!OML:ASF H:\ManfredObstacles\Project 1\Capture day 1\Session 1\Male.ASF
:FULLY-SPECIFIED
:DEGREES
332
root -5.50157 16.6988 -11.9732 -167.718 -57.7401 -180.373
lowerback -12.0986 -3.93359 -2.27398
upperback 1.43809 -5.17349 2.77932
thorax 8.80636 -2.70709 3.22542
lowerneck -1.21993 -2.11187 -4.50685
upperneck -7.59137 -2.66976 6.68402
head -2.05383 -1.44985 2.99712
rclavicle 5.9039e-014 -3.69739e-014
rhumerus -29.532 -18.3845 -76.8502
rradius 27.5176
rwrist 29.6902
rhand -1.39745 -5.56154
rfingers 7.12502
rthumb 24.2512 -34.0479
lclavicle 5.9039e-014 -3.69739e-014
lhumerus -19.5457 3.71418 94.4944
lradius 22.813
lwrist -25.163
lhand -8.76413 8.71923
lfingers 7.12502
lthumb 17.1735 37.9803
rfemur -28.0071 -9.06141 24.7522
rtibia 27.007
rfoot -14.7441 11.132
rtoes 26.5314
lfemur 6.7993 -9.14358 -11.3995
ltibia 10.9451
lfoot 23.872 -8.54274
ltoes 13.5643
333
root -5.50712 16.7078 -12.0024 -167.238 -58.0354 -180.754
lowerback -12.1072 -3.82307 -2.26307
upperback 1.34113 -5.01453 2.67201
thorax 8.68062 -2.62336 3.13971
lowerneck -1.27078 -2.02684 -4.67575
upperneck -7.56473 -2.54816 6.82134
head -2.04135 -1.38653 3.07344
rclavicle 4.32357e-014 2.78299e-015
rhumerus -29.7419 -18.5535 -77.0107
rradius 27.6776
rwrist 29.9391
rhand -1.41529 -5.52341
rfingers 7.12502
rthumb 24.2341 -34.012
lclavicle 4.32357e-014 2.78299e-015
lhumerus -19.3996 2.45619 95.1165
lradius 23.5217
lwrist -24.5659
lhand -8.64185 8.31006
lfingers 7.12502
lthumb 17.2912 37.5608
rfemur -28.0226 -9.10242 24.6139
rtibia 26.9057
rfoot -14.8913 10.817
rtoes 26.0241
lfemur 6.55041 -9.32512 -11.4585
ltibia 10.9401
lfoot 24.1515 -8.33504
ltoes 13.6951
334
root -5.51236 16.7164 -12.0281 -167.127 -58.2852 -180.829
lowerback -12.1648 -3.83642 -2.29554
upperback 1.41803 -5.03547 2.74483
thorax 8.80948 -2.63949 3.22613
lowerneck -1.55621 -1.81339 -4.73888
upperneck -7.58361 -2.2614 6.75226
head -2.01488 -1.23857 3.05484
rclavicle 8.54774e-014 -1.31198e-014
rhumerus -29.5096 -18.3961 -77.2553
rradius 27.7105
rwrist 30.2368
rhand -1.28279 -5.41254
rfingers 7.12502
rthumb 24.3611 -33.8841
lclavicle 8.54774e-014 -1.31198e-014
lhumerus -19.1377 0.995906 95.8412
lradius 24.4017
lwrist -23.2939
lhand -8.71286 8.31379
lfingers 7.12502
lthumb 17.2228 37.5706
rfemur -27.9306 -9.22002 24.6636
rtibia 26.7926
rfoot -15.1514 10.6737
rtoes 25.4017
lfemur 6.44349 -9.38266 -11.3506
ltibia 10.9246
lfoot 24.4316 -8.36464
ltoes 13.0831
335
root -5.52033 16.7195 -12.047 -167.361 -58.5048 -180.53
lowerback -12.0789 -3.66318 -1.77939
upperback 1.38283 -4.8759 2.678
thorax 8.65585 -2.53395 2.90348
lowerneck -1.8342 -1.70212 -4.77057
upperneck -7.41974 -2.10542 6.81805
head -1.92066 -1.15615 3.07396
rclavicle 5.74488e-014 -3.10104e-014
rhumerus -29.6387 -18.6112 -77.436
rradius 27.7479
rwrist 30.3565
rhand -1.21885 -5.31794
rfingers 7.12502
rthumb 24.4224 -33.7813
lclavicle 5.74488e-014 -3.10104e-014
lhumerus -19.1418 -0.701151 96.4509
lradius 25.2282
lwrist -22.167
lhand -8.80436 8.42201
lfingers 7.12502
lthumb 17.1348 37.6865
rfemur -27.8075 -9.54729 24.9612
rtibia 26.6322
rfoot -15.2853 10.8403
rtoes 24.995
lfemur 6.39497 -9.44129 -11.0762
ltibia 10.9546
lfoot 24.7386 -8.26322
ltoes 12.9939
336
root -5.5261 16.7214 -12.0722 -167.072 -58.6356 -180.802
lowerback -12.228 -3.65842 -1.99294
upperback 1.47591 -4.8457 2.75543
thorax 8.86706 -2.53435 3.10196
lowerneck -2.25443 -1.50638 -4.90007
upperneck -7.30829 -1.83712 6.80555
head -1.82607 -1.0133 3.08386
rclavicle -2.99171e-014 -2.42517e-014
rhumerus -29.3725 -18.4143 -77.62
rradius 27.7638
rwrist 30.159
rhand -1.15201 -5.41541
rfingers 7.12502
rthumb 24.4865 -33.8701
lclavicle -2.99171e-014 -2.42517e-014
lhumerus -18.8408 -1.606 97.1356
lradius 25.9135
lwrist -21.6014
lhand -8.86826 8.41273
lfingers 7.12502
lthumb 17.0732 37.6825
rfemur -27.7253 -9.64792 24.8822
rtibia 26.4877
rfoot -15.4763 10.7716
rtoes 24.0876
lfemur 6.3191 -9.52616 -11.1484
ltibia 10.9668
lfoot 24.9971 -8.2574
ltoes 12.7264
337
root -5.53159 16.7264 -12.0928 -166.946 -58.814 -180.882
lowerback -12.3453 -3.70261 -2.09031
upperback 1.53381 -4.90074 2.85529
thorax 9.02077 -2.57118 3.24441
lowerneck -2.51085 -1.27216 -4.9836
upperneck -7.25384 -1.51823 6.82446
head -1.7833 -0.849686 3.10072
rclavicle 2.19657e-014 2.14687e-014
rhumerus -29.1945 -18.1032 -77.8329
rradius 27.771
rwrist 29.9851
rhand -1.04071 -5.51907
rfingers 7.12502
rthumb 24.5932 -33.9593
lclavicle 2.19657e-014 2.14687e-014
lhumerus -18.6509 -2.38793 97.6869
lradius 26.519
lwrist -21.3262
lhand -8.81547 8.27331
lfingers 7.12502
lthumb 17.1241 37.5387
rfemur -27.6601 -9.87602 24.9284
rtibia 26.3612
rfoot -15.5384 10.8309
rtoes 23.7192
lfemur 6.21709 -9.53347 -11.0741
ltibia 10.9712
lfoot 25.2628 -8.35115
ltoes 12.4224
338
root -5.53619 16.7304 -12.1082 -166.679 -58.9609 -181.085
lowerback -12.4755 -3.7447 -2.1834
upperback 1.55399 -4.94737 2.90649
thorax 9.13535 -2.60117 3.33428
lowerneck -2.74403 -1.04786 -4.74773
upperneck -7.08837 -1.2309 6.48508
head -1.70727 -0.700291 2.93343
rclavicle 2.22639e-014 2.14687e-014
rhumerus -29.1013 -17.9065 -77.9813
rradius 27.7557
rwrist 30.0161
rhand -1.03774 -5.47878
rfingers 7.12502
rthumb 24.596 -33.9186
lclavicle 2.22639e-014 2.14687e-014
lhumerus -18.5318 -3.11998 98.1188
lradius 27.0149
lwrist -21.3101
lhand -8.62097 8.10621
lfingers 7.12502
lthumb 17.3113 37.3552
rfemur -27.6692 -10.0676 24.8875
rtibia 26.2769
rfoot -15.5463 10.9178
rtoes 24.3668
lfemur 6.10081 -9.54278 -11.0801
ltibia 10.9564
lfoot 25.5295 -8.13521
ltoes 12.7127
339
root -5.53945 16.7302 -12.1178 -166.654 -59.0584 -181.093
lowerback -12.4706 -3.72293 -2.09638
upperback 1.5544 -4.93324 2.91688
thorax 9.12488 -2.59036 3.29974
lowerneck -2.78811 -0.816225 -4.33416
upperneck -7.05815 -0.941307 6.10672
head -1.70722 -0.558138 2.72592
rclavicle -6.69904e-014 3.65764e-014
rhumerus -29.0775 -17.8896 -78.1064
rradius 27.6667
rwrist 30.0517
rhand -1.12156 -5.38973
rfingers 7.12502
rthumb 24.5157 -33.8405
lclavicle -6.69904e-014 3.65764e-014
lhumerus -18.558 -4.02472 98.4875
lradius 27.4996
lwrist -21.0645
lhand -8.52389 8.13171
lfingers 7.12502
lthumb 17.4047 37.3725
rfemur -27.626 -10.0923 24.9091
rtibia 26.2317
rfoot -15.6537 10.9025
rtoes 24.9405
lfemur 6.11098 -9.52287 -11.0243
ltibia 10.8857
lfoot 25.7914 -8.03625
ltoes 12.8612
340
root -5.54363 16.7304 -12.1241 -166.667 -59.1629 -181.098
lowerback -12.4227 -3.7215 -1.97708
upperback 1.56018 -4.95074 2.91914
thorax 9.09444 -2.59288 3.23376
lowerneck -2.71708 -0.60205 -4.00252
upperneck -7.20382 -0.674715 5.75487
head -1.78113 -0.430229 2.54792
rclavicle 1.59028e-014 -4.77083e-015
rhumerus -29.0303 -17.8249 -78.2564
rradius 27.5158
rwrist 30.0248
rhand -1.18834 -5.32677
rfingers 7.12502
rthumb 24.4517 -33.7862
lclavicle 1.59028e-014 -4.77083e-015
lhumerus -18.6276 -4.74493 98.8127
lradius 27.8948
lwrist -20.824
lhand -8.5553 8.06152
lfingers 7.12502
lthumb 17.3745 37.305
rfemur -27.5587 -10.2347 24.9437
rtibia 26.2078
rfoot -15.7353 10.9533
rtoes 25.0424
lfemur 6.16261 -9.45277 -10.9699
ltibia 10.7856
lfoot 26.0636 -8.215
ltoes 12.7156
341
root -5.54242 16.7306 -12.1459 -166.141 -59.1402 -181.647
lowerback -12.5599 -3.75915 -2.4201
upperback 1.59759 -4.93181 2.93254
thorax 9.25464 -2.60795 3.49339
lowerneck -2.77843 -0.538583 -4.14885
upperneck -7.29961 -0.584673 5.82695
head -1.8071 -0.384737 2.59981
rclavicle -8.94531e-015 -4.77083e-015
rhumerus -28.9346 -17.7837 -78.3155
rradius 27.3939
rwrist 30.1322
rhand -1.25165 -5.3036
rfingers 7.12502
rthumb 24.391 -33.7712
lclavicle -8.94531e-015 -4.77083e-015
lhumerus -18.6253 -5.26048 99.1398
lradius 28.1489
lwrist -20.8634
lhand -8.51222 7.83127
lfingers 7.12502
lthumb 17.4159 37.0711
rfemur -27.5626 -9.85871 24.5982
rtibia 26.2234
rfoot -15.9537 10.5315
rtoes 25.0577
lfemur 6.16173 -9.37641 -11.1894
ltibia 10.6143
lfoot 26.3178 -8.3045
ltoes 12.3243
342
root -5.54362 16.7308 -12.1532 -166.225 -59.1808 -181.575
lowerback -12.566 -3.75319 -2.36235
upperback 1.65614 -4.94294 3.01003
thorax 9.32584 -2.61513 3.54016
lowerneck -2.89596 -0.464651 -4.33403
upperneck -7.36467 -0.480298 5.87329
head -1.81428 -0.32945 2.64932
rclavicle 3.37934e-014 7.95139e-016
rhumerus -28.7996 -17.809 -78.3103
rradius 27.2427
rwrist 30.311
rhand -1.27905 -5.32249
rfingers 7.12502
rthumb 24.3647 -33.7936
lclavicle 3.37934e-014 7.95139e-016
lhumerus -18.589 -5.7284 99.4105
lradius 28.2608
lwrist -20.9434
lhand -8.45935 7.56271
lfingers 7.12502
lthumb 17.4668 36.798
rfemur -27.5384 -9.8149 24.6419
rtibia 26.3025
rfoot -16.0673 10.5255
rtoes 25.9566
lfemur 6.32431 -9.34008 -11.1045
ltibia 10.2854
lfoot 26.6264 -8.32987
ltoes 12.0129
343
root -5.54426 16.7316 -12.1626 -166.053 -59.151 -181.812
lowerback -12.5797 -3.81169 -2.5574
upperback 1.71386 -4.99898 3.08044
thorax 9.42751 -2.65711 3.71176
lowerneck -2.96515 -0.308308 -4.39782
upperneck -7.46428 -0.274053 5.78442
head -1.84632 -0.224876 2.63125
rclavicle 5.15846e-014 -1.66979e-014
rhumerus -28.6315 -17.8121 -78.2884
rradius 27.0197
rwrist 30.5998
rhand -1.27545 -5.35849
rfingers 7.12502
rthumb 24.3682 -33.8291
lclavicle 5.15846e-014 -1.66979e-014
lhumerus -18.5227 -5.76911 99.5897
lradius 28.187
lwrist -21.1228
lhand -8.40443 7.15544
lfingers 7.12502
lthumb 17.5197 36.386
rfemur -27.4779 -9.72319 24.4953
rtibia 26.3149
rfoot -16.0979 10.4636
rtoes 26.8342
lfemur 6.42815 -9.32723 -11.2231
ltibia 10.1343
lfoot 26.8121 -8.3295
ltoes 12.0077
344
root -5.54641 16.7362 -12.1656 -165.254 -59.1278 -182.683
lowerback -12.6041 -3.79097 -2.79645
upperback 1.65647 -4.90973 2.89325
thorax 9.37323 -2.61662 3.66433
lowerneck -2.91179 -0.269245 -4.32123
upperneck -7.475 -0.223686 5.77114
head -1.86166 -0.201927 2.61295
rclavicle 6.07287e-014 -2.8625e-014
rhumerus -28.83 -18.2184 -78.2175
rradius 26.8601
rwrist 31.0378
rhand -1.37316 -5.32162
rfingers 7.12502
rthumb 24.2745 -33.8048
lclavicle 6.07287e-014 -2.8625e-014
lhumerus -18.7357 -5.98443 99.6486
lradius 28.0191
lwrist -21.312
lhand -8.37635 6.82963
lfingers 7.12502
lthumb 17.5467 36.0578
rfemur -27.5268 -9.97933 24.0557
rtibia 26.283
rfoot -16.0209 10.6237
rtoes 27.0966
lfemur 6.32977 -9.39405 -11.7077
ltibia 10.1603
lfoot 26.9038 -8.28994
ltoes 11.9144
345
root -5.5456 16.7376 -12.1735 -166.01 -59.2548 -181.86
lowerback -12.5036 -3.57066 -2.0886
upperback 1.5958 -4.72488 2.86052
thorax 9.16557 -2.48759 3.27668
lowerneck -2.83022 -0.376411 -4.40477
upperneck -7.39445 -0.355024 6.00269
head -1.84366 -0.268223 2.70691
rclavicle 9.90942e-014 -7.95139e-016
rhumerus -29.2455 -18.8861 -78.0665
rradius 26.7624
rwrist 31.3043
rhand -1.39425 -5.28296
rfingers 7.12502
rthumb 24.2543 -33.7689
lclavicle 9.90942e-014 -7.95139e-016
lhumerus -19.1136 -6.47676 99.6957
lradius 27.7792
lwrist -21.4066
lhand -8.40034 6.87383
lfingers 7.12502
lthumb 17.5236 36.1041
rfemur -27.3872 -9.88006 24.5258
rtibia 26.1853
rfoot -16.0499 10.5337
rtoes 27.1403
lfemur 6.28671 -9.22316 -11.139
ltibia 10.2891
lfoot 27.0236 -8.50857
ltoes 11.6491
346
root -5.54675 16.7437 -12.1772 -165.75 -59.3095 -182.031
lowerback -12.61 -3.46115 -1.91449
upperback 1.51886 -4.58949 2.72837
thorax 9.1045 -2.40643 3.06187
lowerneck -2.7556 -0.453531 -4.51752
upperneck -7.38102 -0.448993 6.17689
head -1.8481 -0.315401 2.78797
rclavicle -8.2595e-014 -1.98785e-014
rhumerus -29.5498 -19.5004 -77.9305
rradius 26.6234
rwrist 31.3886
rhand -1.37184 -5.35302
rfingers 7.12502
rthumb 24.2758 -33.8361
lclavicle -8.2595e-014 -1.98785e-014
lhumerus -19.3472 -6.60604 99.6812
lradius 27.36
lwrist -21.7048
lhand -8.3176 6.95056
lfingers 7.12502
lthumb 17.6032 36.1737
rfemur -27.443 -9.89053 24.4442
rtibia 26.0746
rfoot -15.9941 10.5367
rtoes 27.3963
lfemur 5.99612 -9.23177 -11.1786
ltibia 10.5468
lfoot 26.9879 -8.56908
ltoes 11.2865
